<svg width="1440" height="1952" viewBox="0 0 1440 1952" fill="none" xmlns="http://www.w3.org/2000/svg">
<rect width="1440" height="1952" fill="#97BADA"/>
<path d="M1051.17 1200.99C1051.17 1343.41 791.441 1951.64 649.779 1951.64C508.118 1951.64 179.5 1700.97 179.5 1558.55C179.5 1416.13 394.838 1484.05 536.5 1484.05C678.162 1484.05 1051.17 1058.57 1051.17 1200.99Z" fill="#4683BB" fill-opacity="0.26"/>
<path d="M518 1116.05C518 1265.45 394.878 1386.55 243 1386.55C91.1217 1386.55 -32 1265.45 -32 1116.05C-32 966.661 136.122 1143.05 288 1143.05C439.878 1143.05 518 966.661 518 1116.05Z" fill="#4683BB" fill-opacity="0.26"/>
<path d="M1391 1539.55C1391 1692.26 1607.51 1856.55 1450.94 1856.55C1294.36 1856.55 1074.5 1763.76 1074.5 1611.05C1074.5 1458.35 1294.36 1303.55 1450.94 1303.55C1607.51 1303.55 1391 1386.85 1391 1539.55Z" fill="#092263" fill-opacity="0.26"/>
<rect x="1283.06" y="506.776" width="421" height="285" transform="rotate(-170 1283.06 506.776)" fill="#4683BB"/>
<rect x="1270.6" y="897.164" width="421" height="285" transform="rotate(-170 1270.6 897.164)" fill="#4683BB"/>
</svg>
