<svg width="1440" height="1024" viewBox="0 0 1440 1024" fill="none" xmlns="http://www.w3.org/2000/svg">
<rect y="123" width="1440" height="901" fill="#97BADA"/>
<path d="M1342.5 935C1342.5 1082.46 1555.69 1136.5 1371.5 1136.5C1187.31 1136.5 1038 1016.96 1038 869.5C1038 722.04 1187.31 602.5 1371.5 602.5C1555.69 602.5 1342.5 787.54 1342.5 935Z" fill="#BFE0FF" fill-opacity="0.5"/>
<path d="M244.577 252.86C383.144 303.294 707.572 117.281 644.577 290.36C581.581 463.439 -44.8563 427.294 -183.423 376.86C-321.991 326.426 -120.948 284.966 -57.9525 111.887C5.04311 -61.1919 106.01 202.426 244.577 252.86Z" fill="#BFE0FF" fill-opacity="0.5"/>
<path d="M636.773 689.483C775.34 739.917 1133.77 324.404 1070.77 497.483C1007.78 670.562 634.84 1012.42 496.273 961.983C357.706 911.549 163.777 766.983 226.773 593.904C289.768 420.825 498.206 639.049 636.773 689.483Z" fill="#BFE0FF" fill-opacity="0.5"/>
</svg>
